<?xml version="1.0" encoding="utf-8"?>
<!-- Generator: Adobe Illustrator 25.2.3, SVG Export Plug-In . SVG Version: 6.00 Build 0)  -->
<svg version="1.1" xmlns="http://www.w3.org/2000/svg" xmlns:xlink="http://www.w3.org/1999/xlink" x="0px" y="0px"
	 viewBox="0 0 310.81 317.02" style="enable-background:new 0 0 310.81 317.02;" xml:space="preserve">
<style type="text/css">
	.st0{display:none;}
	.st1{display:inline;}
	.st2{fill:#92278F;stroke:#FFFFFF;stroke-width:8;stroke-miterlimit:10;}
</style>
<g id="Layer_2" class="st0">
	<rect x="-140.03" y="-139.11" class="st1" width="595.28" height="595.28"/>
</g>
<g id="Layer_1">
	<path class="st2" d="M298.62,116.67c-10.16,2.35-20.32,4.69-30.48,7.04c2.11,9.91,3.95,21.6,4.99,31.61
		c-8.77,0.17-17.55,0.34-26.32,0.52c0.21-17.25-5.58-32.43-12.1-42.18c7.53-3.6,18.18-10.92,24.56-17.12
		c-6.53-17.29-28.07-34.7-42.38-45.59c4.45-7.54,8.9-15.08,13.35-22.62C209.14,9.81,174.48,3.84,151.14,6.15
		c0,19.78,0,39.56,0,59.33c-6.79,1.04-15.11,2.93-21.81,4.99c5.05,19.04,10.1,38.08,15.16,57.12
		c-11.56,6.38-18.26,18.86-17.01,31.61c1.74,17.72,17.86,25.68,18.67,26.06c-2.96,9.43-5.92,18.85-8.87,28.28
		c1.8,1.07,4.06,2.22,6.75,3.21c2.85,1.05,5.45,1.64,7.6,1.99c-0.53,18.78-1.06,37.57-1.59,56.35c-4.53-0.63-9.38-1.48-14.51-2.62
		c-3.42-0.76-6.68-1.6-9.76-2.47c1.99-9.95,3.98-19.9,5.97-29.85c-6.22-2.03-12.45-4.05-18.67-6.08c4.72-10.4,9.45-20.8,14.17-31.2
		c-4.03-1.88-18.63-9.28-26.66-26.68c-7.2-15.6-4.77-29.82-3.77-34.47c-8.87-2.22-17.74-4.44-26.62-6.65
		c0.04-3.27,0.4-7.48,1.66-12.2c1.78-6.67,4.63-11.73,6.87-15.04c-4.15-2.09-8.47-4.16-12.98-6.21c-6.19-2.81-12.21-5.33-18.01-7.59
		c-2.55,3.15-6.12,8.34-8.6,15.53c-2.46,7.16-2.84,13.43-2.77,17.47c-9.43-2.22-18.85-4.44-28.28-6.65
		c-2.26,13.37-3.95,32.04-1.4,54.02c2.82,24.35,9.81,43.73,15.69,56.79l0,0c10.39-5.51,20.79-11.02,31.18-16.54
		C46.01,201.99,37.9,175,38.01,156.98c8.13,0,16.27,0,24.4,0c-1.78,14.23,12.96,51.33,26.06,61.55
		c-6.84,6.28-13.68,12.57-20.52,18.85c6.97,14.96,34.48,32.45,53.9,33.32c-2.51,9.71-5.71,20.38-8.98,29.89
		c8.23,4.14,24.52,10.93,45.97,10.77c17.57-0.12,31.31-4.86,39.32-8.33c-7.82-28.62-15.64-57.24-23.46-85.87
		c1.62-0.42,3.65-1.11,5.86-2.26c2.21-1.16,3.95-2.44,5.22-3.53c-4.53-9.63-9.05-19.27-13.58-28.9
		c10.05-5.27,16.35-15.71,16.27-26.99c-0.08-10.9-6.11-20.96-15.71-26.25c4.62-8.32,9.24-16.64,13.86-24.95
		c-3.83-2.19-10.06-4.59-14.42-5.55c4.44-17.56,8.87-35.12,13.31-52.68c6.59-0.68,21.45,4.46,26.06,8.87
		c-4.77,8.1-9.54,16.19-14.31,24.29c2.53,1.39,5.69,3.45,8.9,6.43c3.55,3.29,6,6.61,7.62,9.21c-2.85,3.79-6,7.73-9.48,11.75
		c-2.98,3.45-5.94,6.64-8.82,9.6c15.7,12.68,21.12,43.97,13.59,57.95c9.89,2.22,19.78,4.44,29.67,6.65
		c-2.77,7.58-5.55,15.16-8.32,22.74c17.74,9.61,35.49,19.22,53.23,28.84c6.42-10.05,16.76-29.13,20.31-55.39
		C307.65,149.88,302.3,128.11,298.62,116.67L298.62,116.67z"/>
</g>
</svg>
